<svg xmlns="http://www.w3.org/2000/svg" width="27" height="20" viewBox="0 0 27 20" fill="none">
  <path d="M20.4202 -5.75227e-07C21.6303 -4.69438e-07 22.6639 0.223049 23.521 0.669147C24.3277 1.11524 24.9832 1.73482 25.4874 2.52788C25.9916 3.27138 26.3697 4.16357 26.6218 5.20446C26.874 6.29492 27 7.31103 27 8.25279C27 10.7311 26.3697 12.9864 25.1092 15.0186C23.7983 17.1004 21.8067 18.7608 19.1345 20L18.4538 18.6617C19.916 18.0669 21.2017 17.1252 22.3109 15.8364C23.3697 14.5477 24 13.2342 24.2017 11.8959C24.3529 10.9542 24.3277 10.0867 24.1261 9.29368C23.1176 10.285 21.8319 10.7807 20.2689 10.7807C18.6555 10.7807 17.3193 10.3098 16.2605 9.36803C15.2017 8.42627 14.6723 7.08798 14.6723 5.35316C14.6723 3.76704 15.2269 2.47831 16.3361 1.48699C17.4454 0.495662 18.8067 -7.16279e-07 20.4202 -5.75227e-07ZM5.7479 -1.85792e-06C6.95798 -1.75213e-06 7.9916 0.223048 8.84874 0.669146C9.65546 1.11524 10.3109 1.73482 10.8151 2.52788C11.3193 3.27137 11.6975 4.16357 11.9496 5.20446C12.2017 6.29492 12.3277 7.31103 12.3277 8.25279C12.3277 10.7311 11.6975 12.9864 10.437 15.0186C9.12605 17.1004 7.13445 18.7608 4.46218 20L3.78151 18.6617C5.2437 18.0669 6.52941 17.1252 7.63866 15.8364C8.69748 14.5477 9.32773 13.2342 9.52941 11.8959C9.68067 10.9541 9.65546 10.0867 9.45378 9.29368C8.44538 10.285 7.15966 10.7807 5.59664 10.7807C3.9832 10.7807 2.64707 10.3098 1.58824 9.36803C0.529416 8.42627 1.1288e-06 7.08798 1.28047e-06 5.35316C1.41913e-06 3.76704 0.554622 2.47831 1.66387 1.48699C2.77311 0.495661 4.13445 -1.99897e-06 5.7479 -1.85792e-06Z" fill="#9E2A2B"/>
</svg>
